<svg xmlns="http://www.w3.org/2000/svg" viewBox="0 0 800 450" role="img" aria-label="Vehicle placeholder">
  <defs>
    <linearGradient id="g" x1="0" y1="0" x2="1" y2="1">
      <stop offset="0%" stop-color="#1c1c1f"/>
      <stop offset="100%" stop-color="#0c0c0e"/>
    </linearGradient>
  </defs>
  <rect width="800" height="450" fill="url(#g)"/>
  <g transform="translate(140 200)" fill="#6b7280" opacity="0.45">
    <path d="M40 110
             Q60 60 130 50
             Q200 40 280 50
             Q360 60 420 110
             L520 130
             Q540 135 540 155
             L540 180
             Q540 195 520 195
             L470 195
             A35 35 0 0 0 400 195
             L240 195
             A35 35 0 0 0 170 195
             L60 195
             Q40 195 40 180 Z"/>
    <circle cx="205" cy="195" r="28" fill="#000" opacity="0.6"/>
    <circle cx="205" cy="195" r="18"/>
    <circle cx="435" cy="195" r="28" fill="#000" opacity="0.6"/>
    <circle cx="435" cy="195" r="18"/>
    <path d="M150 95 L210 60 L330 55 L390 95 Z" fill="#000" opacity="0.35"/>
  </g>
  <g font-family="ui-sans-serif, system-ui, -apple-system, Segoe UI, Roboto, Inter" text-anchor="middle">
    <text x="400" y="370" fill="#9ca3af" font-size="22" font-weight="600" letter-spacing="3">CATALOG ENTRY</text>
    <text x="400" y="400" fill="#6b7280" font-size="13" letter-spacing="2">CARCLUBFUTURE</text>
  </g>
</svg>
