<svg xmlns="http://www.w3.org/2000/svg" viewBox="0 0 800 450" role="img" aria-label="German Sport placeholder">
  <defs>
    <linearGradient id="g" x1="0" y1="0" x2="1" y2="1">
      <stop offset="0%" stop-color="#0f1620"/>
      <stop offset="100%" stop-color="#070b10"/>
    </linearGradient>
    <radialGradient id="spot" cx="50%" cy="40%" r="60%">
      <stop offset="0%" stop-color="#60a5fa" stop-opacity="0.18"/>
      <stop offset="70%" stop-color="#60a5fa" stop-opacity="0"/>
    </radialGradient>
  </defs>
  <rect width="800" height="450" fill="url(#g)"/>
  <rect width="800" height="450" fill="url(#spot)"/>
  <g style="color:#60a5fa">
  <g transform="translate(140 200)" fill="currentColor" opacity="0.18">
    <!-- stylized side-profile coupe -->
    <path d="M40 110
             Q60 60 130 50
             Q200 40 280 50
             Q360 60 420 110
             L520 130
             Q540 135 540 155
             L540 180
             Q540 195 520 195
             L470 195
             A35 35 0 0 0 400 195
             L240 195
             A35 35 0 0 0 170 195
             L60 195
             Q40 195 40 180 Z"/>
    <circle cx="205" cy="195" r="28" fill="#000" opacity="0.6"/>
    <circle cx="205" cy="195" r="18"/>
    <circle cx="435" cy="195" r="28" fill="#000" opacity="0.6"/>
    <circle cx="435" cy="195" r="18"/>
    <!-- windows -->
    <path d="M150 95
             L210 60
             L330 55
             L390 95 Z" fill="#000" opacity="0.35"/>
  </g></g>
  <g font-family="ui-sans-serif, system-ui, -apple-system, Segoe UI, Roboto, Inter" text-anchor="middle">
    <text x="400" y="370" fill="#60a5fa" font-size="26" font-weight="600" letter-spacing="4">GERMAN SPORT</text>
    <text x="400" y="402" fill="#94a3b8" font-size="14" letter-spacing="2">CARCLUBFUTURE</text>
  </g>
</svg>